<svg xmlns="http://www.w3.org/2000/svg" version="1.0" viewBox="88.11 95.45 225.22 209.68">
    <path d="M189 95.783c-4.523.564-12.339 2.497-17.604 4.353-25.409 8.956-44.69 25.995-56.048 49.531-6.414 13.289-9.342 25.784-9.346 39.872-.003 13.405 1.742 22.417 7.165 36.996 2.445 6.574 2.935 8.57 2.446 9.95-.377 1.062-3.14 3.549-7.176 6.459-6.354 4.581-8.913 7.521-8.188 9.41.848 2.21 8.689 2.736 17.751 1.189 2.296-.392 2.314-.376 1.143.941-.654.736-4.898 4.115-9.43 7.508-4.532 3.392-8.638 6.912-9.125 7.822-.781 1.459-.735 1.763.391 2.586 1.734 1.268 4.338 1.184 21.354-.696 27.705-3.06 35.158-2.904 47.319.992 7.439 2.383 8.674 2.492 7.705.681-1.054-1.97-.836-2.708.81-2.733l1.5-.022-1.493-1.245c-2.219-1.851-12.385-5.372-18.841-6.525-9.625-1.719-28.61-.279-38.31 2.905-1.846.606-4.637 2.013-6.201 3.127-2.199 1.566-3.026 1.846-3.639 1.233-1.1-1.101-.326-1.733 9.15-7.478 14.43-8.748 12.636-8.157 23.217-7.649 5.068.243 10.866.872 12.882 1.397 4.88 1.271 23.789 10.914 27.568 14.058 1.65 1.373 3.832 3.459 4.849 4.636l1.85 2.139-3.35 4.425c-1.842 2.434-3.349 4.86-3.349 5.39 0 1.397-1.03 1.2-4.548-.868l-3.119-1.834-31.666-.018c-39.943-.024-43.8-.115-42.896-1.019 2.472-2.472 32.465-3.938 54.229-2.651 7.15.423 15.175.934 17.833 1.137 4.684.357 6.189-.249 3.931-1.582-.496-.293-1.244-1.183-1.66-1.978-.447-.85-2.199-1.946-4.264-2.666-3.189-1.112-6.043-1.221-31.507-1.203-15.4.01-30.62.262-33.823.559l-5.823.539-5.584 4.578c-5.577 4.573-7.997 8.01-6.614 9.393 1.625 1.625 8.193 1.941 48.952 2.354l43.109.438 2.544 3.931c3.045 4.705 6.997 7.503 12.096 8.561 4.175.867 11.927.354 15.131-1.002 1.679-.71 5.683-4.65 9.963-9.802 1.256-1.513 7.386-1.783 50.716-2.234 19.8-.206 37.169-.644 38.598-.973 2.357-.543 3.698-1.565 3.725-2.838.023-1.054-4.531-5.543-9.325-9.192l-5.078-3.866-24.627-.678c-31.568-.871-45.19-.081-49.151 2.848-1.268.938-2.683 4.825-1.926 5.291.248.152 3.001-.17 6.117-.716 9.958-1.745 65.359-1.074 67.248.815 1.092 1.092-4.406 1.345-36.158 1.66l-35.467.351-3.053 1.789c-3.695 2.166-3.944 2.03-8.158-4.442l-3.006-4.617 2.002-2.527c2.756-3.48 10.623-8.594 20.926-13.603 9.882-4.804 12.134-5.376 23.708-6.019 9.48-.527 10.897-.15 18.324 4.871 2.182 1.475 4.977 3.195 6.211 3.82 3.834 1.945 1.479 2.402-5.256 1.021-8.85-1.815-21.84-2.895-29.321-2.438-11.616.711-22.932 4.709-23.744 8.39a78.815 78.815 0 0 1-.696 2.885c-.424 1.563.594 1.488 6.34-.466 7.869-2.676 14.16-3.274 29.396-2.791 7.537.239 15.504.717 17.704 1.062 2.2.345 7.9.966 12.667 1.38 9.003.782 12.333.352 12.333-1.591 0-1.332-3.806-4.59-12.833-10.984-4.308-3.052-7.833-5.711-7.833-5.909 0-.199 3.375-.179 7.5.044 7.925.427 11.397-.215 12.73-2.356.952-1.527.265-2.239-8.668-8.982-4.164-3.143-7.719-5.955-7.9-6.247-.181-.293.861-3.036 2.315-6.096 5.677-11.947 8.253-24.954 8.296-41.897.033-13.14-.751-17.864-4.758-28.667-9.446-25.465-25.686-43.648-49.182-55.065-10.02-4.869-17.804-7.297-27.667-8.63-6.378-.862-19.377-1.141-24.333-.522m21.684 8.245c20.587 2.533 35.2 10.014 51.948 26.593 9.793 9.694 14.369 16.814 19.734 30.704 3.419 8.853 4.526 15.924 4.541 29.008.014 12.754-.969 19.288-4.341 28.85-1.913 5.428-4.952 12.15-5.492 12.15-.131 0-1.701-.671-3.489-1.492-2.927-1.343-4.217-1.483-12.918-1.406-6.493.057-11.309.462-14.667 1.233-2.75.632-5.633 1.292-6.407 1.467-2.012.455-2.24-1.001-2.251-14.374l-.009-11.572 7.637.243 7.637.242 2.284 2.493c2.411 2.633 7.076 5.127 9.636 5.152 2.226.021 6.132-2.181 8.806-4.964 2.263-2.356 2.334-2.587 2.334-7.672 0-4.663-.184-5.443-1.667-7.057-2.459-2.676-7.349-5.628-9.297-5.611-2.462.021-6.773 2.149-8.703 4.297-4.876 5.425-3.941 5.021-11.636 5.021h-7.031l-.004-4.5c-.003-2.475-.193-6.487-.422-8.917l-.418-4.417-4.341-.445c-5.596-.573-6.565-1.146-7.103-4.203-1.098-6.238-3.173-10.884-6.476-14.497-5.646-6.178-13.662-8.923-22.15-7.583-4.833.763-8.325 2.5-12.199 6.071-3.976 3.666-5.934 7.179-7.506 13.47-.719 2.877-1.699 5.473-2.177 5.769-.479.295-2.855.733-5.281.972l-4.411.435-.418 4.423c-.23 2.432-.42 6.642-.422 9.354l-.005 4.932-5.704-.439c-6.971-.536-9.577-1.57-13.721-5.446-4.051-3.789-5.566-4.366-9.35-3.558-9.979 2.128-13.276 14.056-5.804 21 4.052 3.766 9.787 4.239 13.641 1.124 6.91-5.586 5.879-5.177 13.71-5.445l7.228-.247-.009 11.574c-.011 13.383-.238 14.836-2.251 14.362-8.667-2.041-13.139-2.593-21.74-2.685-8.793-.094-9.936.031-12.652 1.388-2.353 1.176-3.146 1.317-3.75.666-1.185-1.278-5.991-13.657-7.18-18.497-3.899-15.87-2.697-37.565 2.856-51.519 5.207-13.087 10.406-20.977 20.321-30.842 13.013-12.946 29.499-22.069 45.738-25.31 5.378-1.073 17.848-1.218 25.351-.295m-15.842 7.011c-7.664 4.593-8.128 14.145-.984 20.252l3.034 2.593.444 6.153c.353 4.891.698 6.339 1.681 7.058 3.156 2.308 4.552.282 5.019-7.285.368-5.949.386-5.999 2.867-7.989 3.38-2.712 5.339-6.673 5.363-10.844.052-8.923-9.77-14.526-17.424-9.938m8.645 4.938c3.935 3.096 3.821 7.348-.329 12.227L201 130.742l-2.985-3.051c-2.549-2.605-2.985-3.447-2.985-5.769 0-2.285.395-3.081 2.475-4.987 2.861-2.622 3.696-2.756 5.982-.958m-34.554 6.533c-1.503 1.004-2.28 3.368-1.651 5.022 1.093 2.874 4.974 3.367 7.268.925 1.797-1.912 1.805-2.492.068-4.7-1.364-1.735-4.067-2.327-5.685-1.247m58.667 0c-1.503 1.004-2.28 3.368-1.651 5.022 1.092 2.874 4.974 3.367 7.268.925 1.796-1.912 1.805-2.492.068-4.7-1.364-1.735-4.067-2.327-5.685-1.247m-85.906 11.007c-7.237 4.099-9.027 13.087-3.835 19.257 2.308 2.742 5.255 3.893 9.971 3.893 4.537 0 4.876.198 13.336 7.795 6.507 5.845 8.341 6.591 10.457 4.252 1.728-1.908.85-3.645-4.517-8.938-2.603-2.567-5.741-5.875-6.974-7.35-2.184-2.615-2.23-2.795-1.805-7.055.39-3.894.266-4.626-1.129-6.704-.862-1.284-3.018-3.309-4.791-4.5-3.88-2.608-6.93-2.793-10.713-.65M251 132.926c-2.823 1.233-6.202 4.22-7.404 6.544-.781 1.511-.913 3.007-.558 6.326l.466 4.347-7.419 7.283c-6.064 5.953-7.418 7.635-7.418 9.214 0 1.661 1.418 4.027 2.414 4.027 1.218 0 5.038-2.745 9.432-6.778 6.71-6.158 8.49-7.216 12.154-7.224 6.549-.013 11.111-2.409 13.335-7.002 1.647-3.402 1.664-5.88.067-9.33-1.512-3.267-4.261-5.925-7.548-7.298-2.981-1.245-4.858-1.272-7.521-.109m-99.97 7.377c1.183 1.183 1.637 2.363 1.637 4.26 0 3.697-1.662 5.487-5.495 5.92-2.803.316-3.308.151-5.14-1.682-2.302-2.302-2.648-4.958-.961-7.367 2.196-3.136 7.368-3.723 9.959-1.131m107.483-.602c2.304 1.614 2.851 3.134 2.101 5.848-1.01 3.658-2.172 4.452-6.495 4.441-2.082-.006-4.114-.231-4.516-.5-2.344-1.571-1.221-7.615 1.808-9.736 1.959-1.372 5.185-1.396 7.102-.053m-53.094 21.318c4.387 1.495 7.581 4.473 9.945 9.276 3.837 7.795 2.857 8.352-14.697 8.352-17.593 0-18.541-.546-14.654-8.442 1.543-3.133 2.961-4.921 5.105-6.438 5.389-3.811 9.092-4.523 14.301-2.748m-75.649 6.867c-2.235 2.469-.636 8.114 2.298 8.114 2.017 0 4.599-2.956 4.599-5.265 0-3.505-4.588-5.4-6.897-2.849m135.278-.172c-1.444 1.444-1.312 3.771.334 5.863 1.66 2.111 4.091 2.284 5.951.423 1.861-1.861 1.688-4.291-.423-5.952-2.092-1.645-4.419-1.777-5.862-.334m-35.715 43.31v24.357l-3.032 1.299c-4.019 1.723-8.074 4.563-12.915 9.045-4.535 4.198-6.504 4.943-13.048 4.938-5.531-.005-6.495-.449-13.644-6.267-2.976-2.423-7.5-5.457-10.053-6.742L172 235.317v-48.65h57.333v24.357m-88.916-15.273c2.159 1.024 4.916 3.803 4.916 4.954 0 1.13-3.435 4.525-5.634 5.568-2.084.989-2.554.999-4.698.104-4.389-1.834-5.404-7.581-1.836-10.388 2.042-1.606 4.218-1.677 7.252-.238m127.173-.331c3.677 1.675 3.846 7.253.31 10.229-2.353 1.979-2.524 1.999-5.746.653-6.951-2.905-7.224-7.782-.598-10.665 2.611-1.136 3.915-1.183 6.034-.217m-71.03 1.892c-6.526 3.544-8.054 10.522-3.587 16.379 2.158 2.829 2.128 4.082-.306 12.751-1.1 3.917-2 7.371-2 7.674 0 .303 4.5.551 10 .551s10-.147 10-.327c0-.179-.9-3.531-2-7.449-2.462-8.765-2.509-10.765-.316-13.287 2.102-2.418 2.573-4.193 2.138-8.053-.808-7.167-8.033-11.441-13.929-8.239m6.817 6.045c2.371 1.269.985 9.368-1.785 10.431-2.21.848-6.205-6.083-5.126-8.894.733-1.909 4.606-2.771 6.911-1.537m-1.158 20.253c.551 1.436-.53 4.723-1.552 4.723-1.023 0-2.104-3.287-1.553-4.723.199-.519.898-.943 1.553-.943.655 0 1.353.424 1.552.943m-52.868 13.089c9.651 1.193 19.904 5.063 27.937 10.544 3.848 2.626 10.345 9.006 12.816 12.584 4.091 5.926 6.612 13.506 4.492 13.506-.405 0-3.78-3.099-7.5-6.888-7.016-7.146-10.938-10.063-18.912-14.065-8.209-4.12-10.532-4.482-30.851-4.812-10.083-.164-19.042-.448-19.909-.631-1.445-.306-1.251-.586 2.334-3.37 5.259-4.086 9.279-6.379 12.174-6.945 3.717-.726 11.197-.693 17.419.077m119.67.165c3.152.821 13.308 6.789 14.977 8.8 1.263 1.522-1.834 1.913-11.655 1.469-10.248-.464-23.31.389-29.594 1.93-12.037 2.954-24.021 10.828-33.156 21.784-4.148 4.975-5.428 2.257-2.102-4.466 8.085-16.339 24.623-27.313 44.674-29.646 7.435-.864 13.217-.82 16.856.129m-63.436 45.195c4.929 1.368 7.562 6.228 5.748 10.609-1.023 2.468-3.769 3.325-10.666 3.325-6.898 0-9.644-.857-10.667-3.325-1.664-4.019.823-9.427 4.875-10.6 2.96-.856 7.646-.86 10.71-.009"
          fill="#ffffff"
    />
</svg>